<svg xmlns="http://www.w3.org/2000/svg" xmlns:xlink="http://www.w3.org/1999/xlink" width="500" zoomAndPan="magnify" viewBox="0 0 375 374.999991" height="500" preserveAspectRatio="xMidYMid meet" version="1.0"><defs><g/><clipPath id="c3e2aa4094"><path d="M 77.929688 119 L 294.679688 119 L 294.679688 204.476562 L 77.929688 204.476562 Z M 77.929688 119 " clip-rule="nonzero"/></clipPath></defs><rect x="-37.5" width="450" fill="#ffffff" y="-37.499999" height="449.999989" fill-opacity="1"/><rect x="-37.5" width="450" fill="#ffffff" y="-37.499999" height="449.999989" fill-opacity="1"/><g clip-path="url(#c3e2aa4094)"><path fill="#4ec8d4" d="M 290.550781 178.558594 C 287.851562 178.085938 285.472656 179.554688 284.917969 181.988281 C 284.449219 184.132812 285.886719 186.273438 288.378906 186.800781 C 289.40625 187.007812 289.523438 187.476562 289.4375 188.328125 C 289.023438 192.113281 286.558594 194.402344 282.6875 194.519531 C 277.933594 194.636719 273.414062 193.492188 268.925781 192.203125 C 263.878906 190.761719 259.066406 188.738281 254.871094 185.480469 C 251.640625 182.957031 249.382812 179.847656 249.234375 175.59375 C 249.175781 173.832031 249.292969 172.042969 249.207031 170.28125 C 249 165.234375 251.203125 161.449219 255.164062 158.515625 C 259.625 155.199219 264.699219 153.234375 270.011719 151.882812 C 274.410156 150.738281 278.84375 149.710938 283.480469 150.066406 C 287.148438 150.359375 289.496094 152.675781 289.730469 156.34375 C 289.789062 157.195312 289.523438 157.605469 288.644531 157.8125 C 286.414062 158.308594 284.945312 160.070312 285.003906 161.976562 C 285.09375 164.003906 286.675781 165.734375 288.90625 166.117188 C 290.726562 166.4375 292.339844 165.9375 293.601562 164.53125 C 294.628906 163.355469 294.921875 161.949219 294.277344 160.570312 C 293.691406 159.335938 293.660156 158.105469 293.632812 156.8125 C 293.484375 153.058594 292.046875 149.949219 288.671875 148.011719 C 286.792969 146.925781 284.710938 146.542969 282.570312 146.484375 C 278.609375 146.339844 274.792969 147.128906 271.007812 148.011719 C 264.847656 149.449219 258.917969 151.503906 253.667969 155.113281 C 250 157.664062 247.066406 160.804688 245.863281 165.234375 C 245.683594 165.878906 245.246094 165.96875 244.71875 166.058594 C 242.925781 166.378906 241.402344 167.171875 240.402344 168.667969 C 239.847656 169.519531 239.199219 169.664062 238.320312 169.578125 C 237.617188 169.519531 236.941406 169.460938 236.238281 169.402344 C 236.207031 169.546875 236.179688 169.664062 236.148438 169.8125 L 195.625 169.8125 C 194.746094 169.8125 194.011719 170.457031 193.867188 171.308594 L 190.550781 191.527344 L 182.480469 144.109375 C 182.335938 143.285156 181.628906 142.671875 180.808594 142.613281 C 179.957031 142.582031 179.222656 143.109375 178.988281 143.933594 L 171.007812 173.980469 L 153.460938 173.980469 L 149.117188 156.226562 C 148.914062 155.375 148.121094 154.789062 147.238281 154.878906 C 146.359375 154.964844 145.683594 155.667969 145.625 156.550781 L 143.542969 190.117188 L 137 172.25 C 136.734375 171.542969 136.058594 171.074219 135.328125 171.074219 L 112.4375 171.074219 C 114.054688 169.519531 115.726562 168.023438 117.339844 166.554688 C 121.390625 162.859375 125.585938 159.042969 129.222656 154.730469 C 133.300781 149.949219 137.058594 144.429688 137.085938 136.773438 C 137.085938 136.714844 137.085938 136.65625 137.085938 136.625 C 137.058594 136.449219 137.058594 136.246094 137.058594 136.039062 C 137.027344 135.363281 136.96875 134.394531 136.792969 133.484375 C 135.707031 127.5 131.511719 122.660156 125.554688 120.515625 C 119.394531 118.285156 112.792969 119.402344 107.921875 123.539062 L 107.863281 123.597656 C 107.746094 123.683594 107.65625 123.773438 107.539062 123.863281 C 107.421875 123.773438 107.332031 123.683594 107.214844 123.597656 L 107.128906 123.539062 C 102.226562 119.371094 95.625 118.226562 89.464844 120.457031 C 83.507812 122.628906 79.28125 127.472656 78.226562 133.457031 C 78.050781 134.394531 77.992188 135.335938 77.960938 136.007812 C 77.960938 136.246094 77.933594 136.449219 77.933594 136.625 C 77.933594 136.683594 77.933594 136.742188 77.933594 136.773438 C 77.960938 144.285156 81.570312 149.683594 85.5625 154.40625 C 84.796875 155.40625 84.328125 156.636719 84.328125 157.988281 C 84.328125 161.214844 86.941406 163.828125 90.167969 163.828125 C 93.394531 163.828125 96.007812 161.214844 96.007812 157.988281 C 96.007812 154.757812 93.394531 152.148438 90.167969 152.148438 C 89.609375 152.148438 89.054688 152.234375 88.523438 152.382812 C 84.359375 147.453125 81.570312 142.933594 81.511719 136.832031 C 81.511719 136.65625 81.542969 136.449219 81.542969 136.214844 C 81.570312 135.570312 81.628906 134.804688 81.746094 134.074219 C 82.597656 129.378906 85.941406 125.535156 90.695312 123.804688 C 95.65625 122.011719 100.9375 122.894531 104.839844 126.179688 L 104.898438 126.238281 C 105.484375 126.738281 106.042969 127.207031 106.71875 127.558594 C 107.214844 127.824219 107.832031 127.824219 108.332031 127.558594 C 109.007812 127.207031 109.5625 126.738281 110.152344 126.238281 L 110.210938 126.179688 C 114.113281 122.894531 119.394531 122.011719 124.351562 123.804688 C 129.105469 125.503906 132.449219 129.347656 133.300781 134.074219 C 133.417969 134.804688 133.476562 135.597656 133.507812 136.214844 C 133.507812 136.449219 133.535156 136.65625 133.535156 136.832031 C 133.476562 142.933594 130.691406 147.484375 126.523438 152.414062 C 123.003906 156.550781 118.925781 160.304688 114.933594 163.914062 C 112.234375 166.378906 109.417969 168.933594 106.804688 171.601562 C 106.304688 172.101562 106.160156 172.894531 106.425781 173.539062 C 106.6875 174.214844 107.363281 174.625 108.066406 174.625 L 134.066406 174.625 L 143.132812 199.300781 C 143.425781 200.09375 144.21875 200.5625 145.070312 200.445312 C 145.890625 200.328125 146.535156 199.625 146.59375 198.804688 L 148.472656 168.492188 L 150.351562 176.179688 C 150.554688 176.972656 151.261719 177.53125 152.082031 177.53125 L 172.386719 177.53125 C 173.207031 177.53125 173.914062 176.972656 174.117188 176.210938 L 180.339844 152.765625 L 188.820312 202.617188 C 188.964844 203.46875 189.699219 204.113281 190.578125 204.113281 C 191.460938 204.113281 192.191406 203.46875 192.339844 202.617188 L 197.121094 173.390625 L 235.679688 173.390625 C 235.648438 173.628906 235.621094 173.863281 235.5625 174.097656 C 236.734375 174.15625 237.46875 174.214844 238.644531 174.300781 C 239.289062 174.359375 239.933594 174.476562 240.375 175.125 C 241.402344 176.621094 242.925781 177.441406 244.6875 177.765625 C 245.390625 177.882812 245.683594 178.203125 245.832031 178.851562 C 246.332031 180.992188 247.386719 182.871094 248.765625 184.570312 C 251.757812 188.269531 255.660156 190.734375 259.945312 192.613281 C 267.371094 195.839844 275.085938 198.097656 283.273438 197.953125 C 288.820312 197.835938 292.867188 193.992188 293.308594 188.476562 C 293.425781 186.890625 293.222656 185.246094 294.21875 183.839844 C 294.304688 183.722656 294.304688 183.546875 294.304688 183.367188 C 294.660156 181.023438 293.074219 178.996094 290.550781 178.558594 Z M 93.132812 157.988281 C 93.132812 159.628906 91.78125 160.980469 90.136719 160.980469 C 88.496094 160.980469 87.144531 159.628906 87.144531 157.988281 C 87.144531 156.34375 88.496094 154.996094 90.136719 154.996094 C 91.78125 154.996094 93.132812 156.34375 93.132812 157.988281 Z M 93.132812 157.988281 " fill-opacity="1" fill-rule="nonzero"/></g><g fill="#343233" fill-opacity="1"><g transform="translate(73.842069, 237.95835)"><g><path d="M 1.671875 0 L 1.671875 -19.78125 L 8.703125 -19.78125 C 10.140625 -19.78125 11.40625 -19.519531 12.5 -19 C 13.59375 -18.476562 14.507812 -17.769531 15.25 -16.875 C 15.988281 -15.988281 16.546875 -14.941406 16.921875 -13.734375 C 17.304688 -12.523438 17.5 -11.238281 17.5 -9.875 C 17.5 -8.5 17.296875 -7.210938 16.890625 -6.015625 C 16.492188 -4.816406 15.941406 -3.769531 15.234375 -2.875 C 14.523438 -1.976562 13.6875 -1.273438 12.71875 -0.765625 C 11.757812 -0.253906 10.71875 0 9.59375 0 Z M 8.59375 -2.703125 C 9.65625 -2.703125 10.554688 -2.894531 11.296875 -3.28125 C 12.046875 -3.675781 12.660156 -4.195312 13.140625 -4.84375 C 13.628906 -5.5 13.984375 -6.265625 14.203125 -7.140625 C 14.429688 -8.015625 14.546875 -8.925781 14.546875 -9.875 C 14.546875 -10.820312 14.429688 -11.738281 14.203125 -12.625 C 13.984375 -13.507812 13.632812 -14.285156 13.15625 -14.953125 C 12.6875 -15.628906 12.070312 -16.164062 11.3125 -16.5625 C 10.5625 -16.957031 9.65625 -17.15625 8.59375 -17.15625 L 4.609375 -17.15625 L 4.609375 -2.703125 Z M 8.59375 -2.703125 "/></g></g></g><g fill="#343233" fill-opacity="1"><g transform="translate(92.764485, 237.95835)"><g><path d="M 17.890625 0 L 14.234375 0 L 8.015625 -8.546875 L 4.546875 -8.546875 L 4.546875 0 L 1.625 0 L 1.625 -19.78125 L 9.65625 -19.78125 C 10.4375 -19.78125 11.175781 -19.628906 11.875 -19.328125 C 12.570312 -19.035156 13.175781 -18.640625 13.6875 -18.140625 C 14.195312 -17.640625 14.597656 -17.046875 14.890625 -16.359375 C 15.191406 -15.679688 15.34375 -14.953125 15.34375 -14.171875 C 15.34375 -13.523438 15.238281 -12.910156 15.03125 -12.328125 C 14.832031 -11.753906 14.550781 -11.234375 14.1875 -10.765625 C 13.820312 -10.304688 13.390625 -9.90625 12.890625 -9.5625 C 12.390625 -9.21875 11.84375 -8.960938 11.25 -8.796875 Z M 9.65625 -11.28125 C 10.039062 -11.28125 10.410156 -11.359375 10.765625 -11.515625 C 11.117188 -11.671875 11.421875 -11.878906 11.671875 -12.140625 C 11.929688 -12.398438 12.132812 -12.710938 12.28125 -13.078125 C 12.425781 -13.441406 12.5 -13.828125 12.5 -14.234375 C 12.5 -14.640625 12.425781 -15.019531 12.28125 -15.375 C 12.132812 -15.726562 11.929688 -16.039062 11.671875 -16.3125 C 11.421875 -16.582031 11.117188 -16.796875 10.765625 -16.953125 C 10.410156 -17.109375 10.039062 -17.1875 9.65625 -17.1875 L 4.546875 -17.1875 L 4.546875 -11.25 Z M 9.65625 -11.28125 "/></g></g></g><g fill="#343233" fill-opacity="1"><g transform="translate(111.072898, 237.95835)"><g><path d="M 1.203125 -1.453125 C 1.203125 -1.929688 1.367188 -2.34375 1.703125 -2.6875 C 2.035156 -3.03125 2.445312 -3.203125 2.9375 -3.203125 C 3.414062 -3.203125 3.820312 -3.03125 4.15625 -2.6875 C 4.488281 -2.34375 4.65625 -1.929688 4.65625 -1.453125 C 4.65625 -0.960938 4.488281 -0.550781 4.15625 -0.21875 C 3.820312 0.113281 3.414062 0.28125 2.9375 0.28125 C 2.445312 0.28125 2.035156 0.113281 1.703125 -0.21875 C 1.367188 -0.550781 1.203125 -0.960938 1.203125 -1.453125 Z M 1.203125 -1.453125 "/></g></g></g><g fill="#343233" fill-opacity="1"><g transform="translate(117.743187, 237.95835)"><g><path d="M 18.421875 -19.78125 L 21.34375 -19.78125 L 21.34375 0 L 18.453125 0 L 18.453125 -15.1875 L 12.671875 -7.234375 L 10.40625 -7.234375 L 4.609375 -15.1875 L 4.609375 0 L 1.671875 0 L 1.671875 -19.78125 L 4.609375 -19.78125 L 11.53125 -10.265625 Z M 18.421875 -19.78125 "/></g></g></g><g fill="#343233" fill-opacity="1"><g transform="translate(140.768246, 237.95835)"><g><path d="M 6.921875 -17.390625 L 6.921875 -2.40625 L 8.375 -2.40625 L 8.375 0 L 2.546875 0 L 2.546875 -2.40625 L 4.015625 -2.40625 L 4.015625 -17.390625 L 2.546875 -17.390625 L 2.546875 -19.78125 L 8.375 -19.78125 L 8.375 -17.390625 Z M 6.921875 -17.390625 "/></g></g></g><g fill="#343233" fill-opacity="1"><g transform="translate(151.736546, 237.95835)"><g><path d="M 18.609375 -19.78125 L 18.609375 0 L 15.65625 0 L 4.609375 -15.1875 L 4.609375 0 L 1.5625 0 L 1.5625 -19.78125 L 4.625 -19.78125 L 15.6875 -4.515625 L 15.6875 -19.78125 Z M 18.609375 -19.78125 "/></g></g></g><g fill="#343233" fill-opacity="1"><g transform="translate(171.970691, 237.95835)"><g><path d="M 15.578125 -19.78125 L 18.46875 -19.78125 L 18.46875 0 L 15.578125 0 L 15.578125 -9.0625 L 4.5 -9.0625 L 4.5 0 L 1.5625 0 L 1.5625 -19.78125 L 4.5 -19.78125 L 4.5 -11.78125 L 15.578125 -11.78125 Z M 15.578125 -19.78125 "/></g></g></g><g fill="#343233" fill-opacity="1"><g transform="translate(192.149014, 237.95835)"><g/></g></g><g fill="#343233" fill-opacity="1"><g transform="translate(199.433306, 237.95835)"><g><path d="M 8.59375 0 L 0.390625 -19.78125 L 3.546875 -19.78125 L 10.21875 -3.734375 L 16.890625 -19.78125 L 20.03125 -19.78125 L 11.828125 0 Z M 8.59375 0 "/></g></g></g><g fill="#343233" fill-opacity="1"><g transform="translate(219.862818, 237.95835)"><g><path d="M 16.109375 -7 C 16.109375 -6 15.914062 -5.054688 15.53125 -4.171875 C 15.144531 -3.285156 14.625 -2.507812 13.96875 -1.84375 C 13.320312 -1.1875 12.5625 -0.664062 11.6875 -0.28125 C 10.8125 0.09375 9.875 0.28125 8.875 0.28125 C 7.875 0.28125 6.9375 0.09375 6.0625 -0.28125 C 5.1875 -0.664062 4.421875 -1.1875 3.765625 -1.84375 C 3.117188 -2.507812 2.601562 -3.285156 2.21875 -4.171875 C 1.832031 -5.054688 1.640625 -6 1.640625 -7 L 1.640625 -19.78125 L 4.546875 -19.78125 L 4.546875 -7 C 4.546875 -6.40625 4.65625 -5.835938 4.875 -5.296875 C 5.101562 -4.765625 5.410156 -4.285156 5.796875 -3.859375 C 6.191406 -3.441406 6.65625 -3.113281 7.1875 -2.875 C 7.71875 -2.632812 8.28125 -2.515625 8.875 -2.515625 C 9.46875 -2.515625 10.023438 -2.632812 10.546875 -2.875 C 11.066406 -3.113281 11.519531 -3.441406 11.90625 -3.859375 C 12.300781 -4.285156 12.609375 -4.765625 12.828125 -5.296875 C 13.054688 -5.835938 13.171875 -6.40625 13.171875 -7 L 13.171875 -19.78125 L 16.109375 -19.78125 Z M 16.109375 -7 "/></g></g></g><g fill="#343233" fill-opacity="1"><g transform="translate(237.557236, 237.95835)"><g><path d="M 10.75 -20.0625 C 12.082031 -20.0625 13.34375 -19.789062 14.53125 -19.25 C 15.726562 -18.71875 16.765625 -17.988281 17.640625 -17.0625 C 18.523438 -16.144531 19.226562 -15.066406 19.75 -13.828125 C 20.269531 -12.585938 20.53125 -11.28125 20.53125 -9.90625 C 20.53125 -8.507812 20.269531 -7.195312 19.75 -5.96875 C 19.226562 -4.738281 18.519531 -3.664062 17.625 -2.75 C 16.738281 -1.832031 15.695312 -1.101562 14.5 -0.5625 C 13.3125 -0.0195312 12.050781 0.25 10.71875 0.25 C 9.375 0.25 8.109375 -0.0195312 6.921875 -0.5625 C 5.734375 -1.101562 4.695312 -1.832031 3.8125 -2.75 C 2.925781 -3.664062 2.226562 -4.738281 1.71875 -5.96875 C 1.207031 -7.195312 0.953125 -8.507812 0.953125 -9.90625 C 0.953125 -11.28125 1.207031 -12.585938 1.71875 -13.828125 C 2.226562 -15.066406 2.925781 -16.144531 3.8125 -17.0625 C 4.707031 -17.988281 5.75 -18.71875 6.9375 -19.25 C 8.132812 -19.789062 9.40625 -20.0625 10.75 -20.0625 Z M 10.75 -2.515625 C 11.695312 -2.515625 12.582031 -2.703125 13.40625 -3.078125 C 14.238281 -3.460938 14.960938 -3.988281 15.578125 -4.65625 C 16.191406 -5.332031 16.671875 -6.117188 17.015625 -7.015625 C 17.367188 -7.921875 17.546875 -8.882812 17.546875 -9.90625 C 17.546875 -10.925781 17.367188 -11.882812 17.015625 -12.78125 C 16.671875 -13.675781 16.191406 -14.457031 15.578125 -15.125 C 14.960938 -15.789062 14.238281 -16.316406 13.40625 -16.703125 C 12.582031 -17.085938 11.695312 -17.28125 10.75 -17.28125 C 9.800781 -17.28125 8.910156 -17.085938 8.078125 -16.703125 C 7.253906 -16.316406 6.535156 -15.789062 5.921875 -15.125 C 5.304688 -14.457031 4.816406 -13.675781 4.453125 -12.78125 C 4.085938 -11.882812 3.90625 -10.925781 3.90625 -9.90625 C 3.90625 -8.882812 4.085938 -7.921875 4.453125 -7.015625 C 4.816406 -6.117188 5.304688 -5.332031 5.921875 -4.65625 C 6.535156 -3.988281 7.253906 -3.460938 8.078125 -3.078125 C 8.910156 -2.703125 9.800781 -2.515625 10.75 -2.515625 Z M 10.75 -2.515625 "/></g></g></g><g fill="#343233" fill-opacity="1"><g transform="translate(258.963566, 237.95835)"><g><path d="M 18.609375 -19.78125 L 18.609375 0 L 15.65625 0 L 4.609375 -15.1875 L 4.609375 0 L 1.5625 0 L 1.5625 -19.78125 L 4.625 -19.78125 L 15.6875 -4.515625 L 15.6875 -19.78125 Z M 18.609375 -19.78125 "/></g></g></g><g fill="#343233" fill-opacity="1"><g transform="translate(279.19771, 237.95835)"><g><path d="M 12.609375 -10.578125 L 18 -10.578125 L 18 -3.328125 C 17.101562 -2.265625 16.019531 -1.394531 14.75 -0.71875 C 13.488281 -0.0507812 12.113281 0.28125 10.625 0.28125 C 9.289062 0.28125 8.023438 0.0078125 6.828125 -0.53125 C 5.640625 -1.070312 4.609375 -1.800781 3.734375 -2.71875 C 2.859375 -3.644531 2.164062 -4.71875 1.65625 -5.9375 C 1.144531 -7.164062 0.890625 -8.476562 0.890625 -9.875 C 0.890625 -11.25 1.144531 -12.554688 1.65625 -13.796875 C 2.164062 -15.035156 2.859375 -16.113281 3.734375 -17.03125 C 4.609375 -17.957031 5.640625 -18.6875 6.828125 -19.21875 C 8.023438 -19.757812 9.289062 -20.03125 10.625 -20.03125 C 11.851562 -20.03125 13.015625 -19.785156 14.109375 -19.296875 C 15.210938 -18.816406 16.203125 -18.1875 17.078125 -17.40625 L 15.34375 -15.203125 C 14.726562 -15.859375 14.015625 -16.382812 13.203125 -16.78125 C 12.398438 -17.1875 11.539062 -17.390625 10.625 -17.390625 C 9.675781 -17.390625 8.785156 -17.1875 7.953125 -16.78125 C 7.128906 -16.382812 6.410156 -15.84375 5.796875 -15.15625 C 5.191406 -14.46875 4.710938 -13.671875 4.359375 -12.765625 C 4.003906 -11.859375 3.828125 -10.894531 3.828125 -9.875 C 3.828125 -8.851562 4.003906 -7.890625 4.359375 -6.984375 C 4.710938 -6.085938 5.191406 -5.296875 5.796875 -4.609375 C 6.410156 -3.929688 7.128906 -3.394531 7.953125 -3 C 8.785156 -2.613281 9.675781 -2.421875 10.625 -2.421875 C 11.5 -2.421875 12.316406 -2.59375 13.078125 -2.9375 C 13.847656 -3.28125 14.53125 -3.742188 15.125 -4.328125 L 15.125 -7.875 L 12.609375 -7.875 Z M 12.609375 -10.578125 "/></g></g></g></svg>